<svg xmlns="http://www.w3.org/2000/svg" width="560" height="420" viewBox="0 0 560 420" role="img" aria-labelledby="title desc">
  <title id="title">Content management feature</title>
  <desc id="desc">Two people arranging reusable content blocks on a large mobile screen.</desc>
  <rect width="560" height="420" rx="28" fill="#F5F7FA"/>
  <rect x="182" y="48" width="210" height="320" rx="26" fill="#263238"/>
  <rect x="198" y="72" width="178" height="272" rx="16" fill="#FFFFFF"/>
  <rect x="220" y="104" width="120" height="16" rx="8" fill="#4CAF4F"/>
  <rect x="220" y="140" width="136" height="48" rx="10" fill="#E8F5E9"/>
  <rect x="220" y="204" width="64" height="76" rx="10" fill="#C8E6C9"/>
  <rect x="300" y="204" width="56" height="76" rx="10" fill="#4CAF4F"/>
  <circle cx="118" cy="154" r="30" fill="#263238"/>
  <path d="M76 214c14-36 70-36 84 0l20 84H58l18-84Z" fill="#4CAF4F"/>
  <path d="M90 298h34l-4 76H82l8-76Zm48 0h34l18 76h-38l-14-76Z" fill="#263238"/>
  <circle cx="450" cy="176" r="28" fill="#263238"/>
  <path d="M414 232c12-32 62-32 74 0l18 66h-110l18-66Z" fill="#388E3B"/>
  <path d="M428 298h30l-8 76h-34l12-76Zm42 0h30l14 76h-34l-10-76Z" fill="#263238"/>
  <path d="M152 226 218 192" stroke="#263238" stroke-width="10" stroke-linecap="round"/>
  <path d="m218 192-14-4 6 13Z" fill="#263238"/>
</svg>
