<svg xmlns="http://www.w3.org/2000/svg" width="560" height="420" viewBox="0 0 560 420" role="img" aria-labelledby="title desc">
  <title id="title">Reusable and secure digital experiences</title>
  <desc id="desc">A person standing beside a mobile form protected by a lock.</desc>
  <rect width="560" height="420" rx="28" fill="#F5F7FA"/>
  <circle cx="176" cy="210" r="118" fill="#E8F5E9"/>
  <rect x="152" y="52" width="220" height="320" rx="28" fill="#263238"/>
  <rect x="170" y="78" width="184" height="264" rx="16" fill="#FFFFFF"/>
  <circle cx="262" cy="118" r="28" fill="#C8E6C9"/>
  <path d="M250 118h24M262 106v24" stroke="#4CAF4F" stroke-width="7" stroke-linecap="round"/>
  <rect x="198" y="164" width="128" height="18" rx="9" fill="#E8F5E9"/>
  <rect x="198" y="202" width="128" height="18" rx="9" fill="#E8F5E9"/>
  <rect x="198" y="240" width="128" height="18" rx="9" fill="#C8E6C9"/>
  <rect x="222" y="286" width="80" height="30" rx="15" fill="#4CAF4F"/>
  <path d="M415 142a48 48 0 0 1 96 0v28h-18v-28a30 30 0 0 0-60 0v28h-18v-28Z" fill="#388E3B"/>
  <rect x="394" y="162" width="138" height="126" rx="22" fill="#4CAF4F"/>
  <circle cx="463" cy="214" r="16" fill="#FFFFFF"/>
  <path d="M463 228v24" stroke="#FFFFFF" stroke-width="10" stroke-linecap="round"/>
  <circle cx="98" cy="154" r="30" fill="#263238"/>
  <path d="M58 214c14-36 66-36 80 0l20 88H40l18-88Z" fill="#388E3B"/>
  <path d="M72 302h34l-6 72H62l10-72Zm46 0h32l16 72h-38l-10-72Z" fill="#263238"/>
  <path d="M130 226 184 198" stroke="#263238" stroke-width="10" stroke-linecap="round"/>
</svg>
