<svg width="190" height="30" viewBox="0 0 190 30" fill="none" xmlns="http://www.w3.org/2000/svg">
    <path d="M0 0L6.9 12.93L14.44.32L0 0Z" fill="#4CAF4F"/>
    <path d="M16.12 1.13L23.36 14H8.88L16.12 1.13Z" fill="#4CAF4F"/>
    <path d="M25.22 16.79L32.46 30H17.63L24.99 16.79H25.22Z" fill="#4CAF4F"/>
    <path d="M26.79 16L33.87 29L41.06 16H26.79Z" fill="#4CAF4F"/>
    <path d="M22.62 16.42L16.13 27.96L9.64 16.42H22.62ZM24.36 15.39H7.9L16.13 30L24.36 15.39Z" fill="#FFFFFF"/>
    <path d="M33.89 2.06L40.38 13.6H27.4L33.89 2.06ZM33.89 0L25.66 14.61H42.13L33.89 0Z" fill="#FFFFFF"/>
    <text x="52" y="22" fill="#FFFFFF" font-family="Inter, Arial, sans-serif" font-size="24" font-weight="700" letter-spacing="-0.5">Nexcent</text>
</svg>
